<?xml version="1.0" encoding="utf-8"?>
<!-- Generator: Adobe Illustrator 23.0.1, SVG Export Plug-In . SVG Version: 6.00 Build 0)  -->
<svg version="1.1" id="Layer_1" xmlns="http://www.w3.org/2000/svg" xmlns:xlink="http://www.w3.org/1999/xlink" x="0px" y="0px"
	 width="400px" height="300px" viewBox="0 0 400 300" style="enable-background:new 0 0 400 300;" xml:space="preserve">
<style type="text/css">
	.st0{fill:#FFFFFF;}
	.st1{fill:url(#Shadow_1_);}
	.st2{fill:url(#Path_1_1_);}
	.st3{fill:url(#Path_2_1_);}
	.st4{fill:url(#Path_3_1_);}
	.st5{fill:url(#Path_4_2_);}
	.st6{fill:url(#Rectangle_3_1_);}
	.st7{fill:url(#Path_5_1_);}
	.st8{fill:#85EF47;}
	.st9{fill:#00BD56;}
	.st10{fill:#5893D4;}
	.st11{fill:#1F3C88;}
	.st12{fill:#FFD700;}
	.st13{fill:#C6A000;}
	.st14{fill:url(#Path_6_1_);}
	.st15{fill:url(#Rectangle_11_1_);}
	.st16{fill:#080957;}
	.st17{fill:#8AACFF;}
	.st18{fill:#461B93;}
	.st19{fill:#8253D7;}
	.st20{fill:url(#Path_10_1_);}
	.st21{fill:#A393EB;}
	.st22{fill:#5E63B6;}
	.st23{fill:#FA67AB;}
	.st24{fill:#FFD7F1;}
	.st25{fill:url(#Path_15_1_);}
	.st26{fill:#F0F0F0;}
	.st27{fill:url(#Path_18_1_);}
	.st28{fill:url(#Path_19_1_);}
	.st29{fill:#866EC7;}
	.st30{fill:url(#Rectangle_16_1_);}
	.st31{fill:url(#Path_21_1_);}
	.st32{fill:url(#Path_26-2_1_);}
	.st33{fill:url(#Ellipse_7-2_1_);}
	.st34{fill:url(#Ellipse_8-2_1_);}
	.st35{fill:#CDD9FF;}
	.st36{fill:url(#Ellipse_9-2_1_);}
	.st37{fill:url(#Ellipse_10_1_);}
	.st38{fill:url(#Ellipse_11_1_);}
	.st39{fill:url(#Ellipse_12_1_);}
	.st40{fill:url(#Ellipse_13_1_);}
	.st41{fill:url(#Ellipse_14_1_);}
	.st42{fill:url(#Ellipse_15_1_);}
	.st43{fill:url(#Ellipse_16_1_);}
	.st44{fill:url(#Ellipse_17_1_);}
	.st45{fill:url(#Ellipse_18_1_);}
	.st46{fill:url(#Ellipse_19_1_);}
	.st47{fill:url(#Ellipse_20_1_);}
	.st48{fill:#151130;}
	.st49{fill:#FFB192;}
	.st50{fill:url(#Path_38_1_);}
	.st51{fill:url(#Path_39_1_);stroke:#000000;stroke-miterlimit:10;}
	.st52{fill:#352961;}
	.st53{fill:url(#Path_34_1_);}
	.st54{fill:url(#Path_42_1_);}
	.st55{fill:url(#Path_44_1_);}
	.st56{fill:url(#Path_43_1_);}
	.st57{fill:url(#Path_46_1_);}
	.st58{fill:url(#Path_47_1_);}
	.st59{fill:url(#Path_49_1_);}
	.st60{fill:#FFEEF6;}
	.st61{fill:url(#Path_51_1_);}
	.st62{fill:url(#Path_23_1_);}
</style>
<path id="Path_4" class="st0" d="M212.94,31.57c-0.5,0.61-1.15,1.09-1.88,1.4l-6.67,2.89c-2.57,1.11-5.55-0.07-6.66-2.64l-1.42-3.27
	c-2.07-0.11-4.19-0.2-6.36-0.25l4.79,11.07c1.11,2.57,4.09,3.75,6.66,2.64l17.2-7.44c1.29-0.56,2.29-1.63,2.76-2.95
	C218.68,32.47,215.87,31.99,212.94,31.57z"/>
<g>
	<g id="Desk">
		
			<linearGradient id="Shadow_1_" gradientUnits="userSpaceOnUse" x1="-481.1411" y1="543.224" x2="-481.1411" y2="540.1119" gradientTransform="matrix(793.986 0 0 -28.84 382219.25 15870.5586)">
			<stop  offset="0" style="stop-color:#866EC7"/>
			<stop  offset="1" style="stop-color:#866EC7;stop-opacity:0"/>
		</linearGradient>
		<ellipse id="Shadow" class="st1" cx="200" cy="275.5" rx="168.24" ry="6.5"/>
		
			<linearGradient id="Path_1_1_" gradientUnits="userSpaceOnUse" x1="-478.7982" y1="534.5811" x2="-478.847" y2="535.1769" gradientTransform="matrix(79.6061 0 0 -272.799 38375.5742 146131.9688)">
			<stop  offset="0" style="stop-color:#866EC7"/>
			<stop  offset="1" style="stop-color:#F2C0FF"/>
		</linearGradient>
		<path id="Path_1" class="st2" d="M276.25,153.23l-31.69,121.44c-0.25,0.94-1.1,1.6-2.07,1.6l0,0c-1.18,0-2.14-0.96-2.14-2.14
			c0-0.15,0.02-0.3,0.05-0.44l25.4-120.46H276.25z"/>
		
			<linearGradient id="Path_2_1_" gradientUnits="userSpaceOnUse" x1="-480.0067" y1="534.7319" x2="-480.055" y2="535.3277" gradientTransform="matrix(79.6053 0 0 -272.799 38548.6641 146131.9219)">
			<stop  offset="0" style="stop-color:#866EC7"/>
			<stop  offset="1" style="stop-color:#F2C0FF"/>
		</linearGradient>
		<path id="Path_2" class="st3" d="M318.57,153.23l31.69,121.44c0.25,0.94,1.1,1.6,2.07,1.6l0,0c1.18,0,2.14-0.96,2.14-2.14
			c0-0.15-0.02-0.3-0.05-0.44l-25.4-120.46H318.57z"/>
		
			<linearGradient id="Path_3_1_" gradientUnits="userSpaceOnUse" x1="-476.529" y1="534.3907" x2="-476.6205" y2="534.9315" gradientTransform="matrix(79.6043 0 0 -272.799 38054.3125 146131.9688)">
			<stop  offset="0" style="stop-color:#866EC7"/>
			<stop  offset="1" style="stop-color:#F2C0FF"/>
		</linearGradient>
		<path id="Path_3" class="st4" d="M131.73,153.23l-31.69,121.44c-0.25,0.94-1.1,1.6-2.07,1.6l0,0c-1.18,0-2.14-0.96-2.14-2.14
			c0-0.15,0.02-0.3,0.05-0.44l25.4-120.46H131.73z"/>
		
			<linearGradient id="Path_4_2_" gradientUnits="userSpaceOnUse" x1="-477.5984" y1="534.6556" x2="-477.69" y2="535.1964" gradientTransform="matrix(79.6061 0 0 -272.799 38203.7344 146131.9219)">
			<stop  offset="0" style="stop-color:#866EC7"/>
			<stop  offset="1" style="stop-color:#F2C0FF"/>
		</linearGradient>
		<path id="Path_4_1_" class="st5" d="M162.83,153.23l31.69,121.44c0.25,0.94,1.1,1.6,2.07,1.6l0,0c1.18,0,2.14-0.96,2.14-2.14
			c0-0.15-0.02-0.3-0.05-0.44l-25.4-120.46H162.83z"/>
		
			<linearGradient id="Rectangle_3_1_" gradientUnits="userSpaceOnUse" x1="-481.5556" y1="531.6511" x2="-482.141" y2="531.6511" gradientTransform="matrix(-503.312 0 0 10.01 -242374.2188 -5170.8604)">
			<stop  offset="0" style="stop-color:#BF9FEE"/>
			<stop  offset="1" style="stop-color:#F2C0FF"/>
		</linearGradient>
		<path id="Rectangle_3" class="st6" d="M335.83,153.23h-222.5c-1.25,0-2.26-1.01-2.26-2.26l0,0c0-1.25,1.01-2.26,2.26-2.26h222.5
			c1.25,0,2.26,1.01,2.26,2.26l0,0C338.09,152.21,337.08,153.23,335.83,153.23z"/>
		
			<linearGradient id="Path_5_1_" gradientUnits="userSpaceOnUse" x1="-481.035" y1="537.3492" x2="-481.7485" y2="537.3492" gradientTransform="matrix(171.7505 0 0 -10.009 82834.1484 5529.2974)">
			<stop  offset="0" style="stop-color:#866EC7"/>
			<stop  offset="1" style="stop-color:#F2C0FF"/>
		</linearGradient>
		<path id="Path_5" class="st7" d="M335.83,148.71c1.25,0,2.26,1.01,2.26,2.26c0,1.25-1.01,2.26-2.26,2.26h-75.21v-4.51H335.83z"/>
		<g id="Documents">
			<g id="Documents_3">
				<rect id="Rectangle_4-2" x="285.26" y="102.77" class="st8" width="8.08" height="46.01"/>
				<rect id="Rectangle_5" x="293.34" y="102.77" class="st9" width="15.03" height="46.01"/>
				<g id="Group_4">
					<rect id="Rectangle_6" x="288.03" y="109.48" class="st0" width="2.47" height="26.55"/>
					<circle id="Ellipse_3" class="st9" cx="289.27" cy="140.83" r="1.24"/>
				</g>
			</g>
			<g id="Documents_2">
				<rect id="Rectangle_7" x="277.17" y="102.77" class="st10" width="8.08" height="46.01"/>
				<g id="Group_6">
					<rect id="Rectangle_8" x="279.95" y="109.48" class="st0" width="2.47" height="26.55"/>
					<circle id="Ellipse_4" class="st11" cx="281.19" cy="140.83" r="1.24"/>
				</g>
			</g>
			<g id="Documents_1">
				<rect id="Rectangle_9" x="269.09" y="102.77" class="st12" width="8.08" height="46.01"/>
				<g id="Group_8">
					<rect id="Rectangle_10" x="271.87" y="109.48" class="st0" width="2.47" height="26.55"/>
					<circle id="Ellipse_5" class="st13" cx="273.11" cy="140.83" r="1.24"/>
				</g>
			</g>
		</g>
		<g id="Cup">
			
				<linearGradient id="Path_6_1_" gradientUnits="userSpaceOnUse" x1="-481.0347" y1="535.6754" x2="-481.5412" y2="535.6754" gradientTransform="matrix(14.126 0 0 -14.126 6812.0156 7708.1348)">
				<stop  offset="0" style="stop-color:#D30746"/>
				<stop  offset="1" style="stop-color:#FF1F5A"/>
			</linearGradient>
			<path id="Path_6" class="st14" d="M242.56,137.99c-1.76,0-3.19,1.43-3.19,3.19s1.43,3.19,3.19,3.19c1.76,0,3.19-1.43,3.19-3.19
				C245.74,139.42,244.32,137.99,242.56,137.99z M242.56,142.45c-0.7,0-1.27-0.57-1.27-1.27c0-0.7,0.57-1.27,1.27-1.27
				c0.7,0,1.27,0.57,1.27,1.27c0,0,0,0,0,0C243.83,141.88,243.26,142.45,242.56,142.45L242.56,142.45z"/>
			
				<linearGradient id="Rectangle_11_1_" gradientUnits="userSpaceOnUse" x1="-474.6175" y1="534.8832" x2="-474.6175" y2="535.2346" gradientTransform="matrix(32.334 0 0 -28.707 15596.7813 15504.0186)">
				<stop  offset="0" style="stop-color:#FF1F5A"/>
				<stop  offset="1" style="stop-color:#FF6C7E"/>
			</linearGradient>
			<path id="Rectangle_11" class="st15" d="M244.16,135.76h12.68c0.53,0,0.95,0.43,0.95,0.95v8.36c0,2.01-1.63,3.63-3.63,3.63l0,0
				h-7.32c-2.01,0-3.63-1.63-3.63-3.63l0,0v-8.36C243.21,136.19,243.63,135.76,244.16,135.76L244.16,135.76z"/>
		</g>
	</g>
	<g id="Briefcase_Plant" transform="translate(-80)">
		<g id="Briefcase">
			<g id="Group_12">
				<path id="Path_7" class="st16" d="M294.1,243.3h1.72c0-4.93,3.99-8.92,8.92-8.92s8.92,3.99,8.92,8.92h1.72
					c0-5.88-4.77-10.64-10.65-10.63C298.87,232.67,294.11,237.43,294.1,243.3L294.1,243.3z"/>
			</g>
			<rect id="Rectangle_12" x="282.56" y="240.72" class="st17" width="49.81" height="35.54"/>
			<path id="Rectangle_13" class="st0" d="M306.5,261.94h-3.51c-1.9,0-3.44-1.54-3.44-3.44l0,0l0,0h10.39l0,0l0,0
				C309.94,260.4,308.4,261.94,306.5,261.94z"/>
			<g id="Group_13">
				<rect id="Rectangle_14" x="282.56" y="258.07" class="st16" width="49.81" height="0.86"/>
			</g>
			<rect id="Rectangle_15" x="327.36" y="240.72" class="st16" width="5.01" height="35.55"/>
		</g>
		<g id="Plant">
			<g id="Group_15">
				<path id="Path_8" class="st18" d="M399.45,222.03c0,0,9.79-17.68,28.34-13.28c0,0,2.61,23.56-24.3,33.84
					C403.49,242.59,407.18,224.9,399.45,222.03z"/>
				<path id="Path_9" class="st19" d="M403.13,230.67l8.12-7.21l1.14-6.21l0.42,0.08l-1.04,5.67l5.48-4.86l1.15-6.26l0.42,0.08
					l-1.05,5.71l5.85-5.2l0.29,0.32l-8.6,7.64l5.93,1.09l-0.08,0.42l-6.26-1.15l-6.4,5.68l5.93,1.09l-0.08,0.42l-6.26-1.15
					l-4.67,4.15L403.13,230.67z"/>
			</g>
			
				<linearGradient id="Path_10_1_" gradientUnits="userSpaceOnUse" x1="-401.6096" y1="536.5731" x2="-402.1476" y2="536.5731" gradientTransform="matrix(71.4028 0 0 -77.852 28913 42033.4297)">
				<stop  offset="0" style="stop-color:#71397C"/>
				<stop  offset="1" style="stop-color:#C582D5"/>
			</linearGradient>
			<path id="Path_10" class="st20" d="M382.71,277.7h18.98c1.41,0,2.6-1.04,2.78-2.44l3.8-28.76c0.25-1.89-1.08-3.63-2.98-3.88
				c-0.15-0.02-0.3-0.03-0.45-0.03h-25.29c-1.91,0-3.46,1.55-3.46,3.46c0,0.15,0.01,0.3,0.03,0.45l3.8,28.76
				C380.11,276.66,381.3,277.7,382.71,277.7z"/>
			<g id="Group_17">
				<path id="Path_11" class="st21" d="M402.77,242.59c0,0,12.68-11.75,2.36-19.06c-10.32-7.31-4.12-11.61,0.84-18.06
					c4.96-6.45-6.43-11.39-2.77-19.56c3.65-8.17-10.32-15.7-12.47-2.58c-2.15,13.12,8.31,14.31,1.47,26.08
					c-6.84,11.76,2.97,25.59,0,33.19H402.77z"/>
				<g id="Group_16">
					<path id="Path_12" class="st22" d="M398.44,242.7c0.07-0.11,6.56-11.1,1.17-17.17c-5.46-6.15-5.97-14.46-1.2-19.78
						c2.55-2.84,1.43-6.23,0.26-9.82c-1.19-3.65-2.54-7.78-0.25-12l-0.38-0.21c-2.39,4.39-1.01,8.61,0.21,12.34
						c1.19,3.62,2.21,6.75-0.17,9.4c-4.92,5.48-4.42,14.04,1.19,20.35c5.18,5.83-1.15,16.55-1.22,16.66L398.44,242.7z"/>
				</g>
			</g>
			<g id="Group_19">
				<path id="Path_13" class="st23" d="M392.2,242.59c0,0,0.9-23.79-21.68-34.32c-22.57-10.53-29.88,9.6-19.99,17.16
					c9.89,7.56,25.24,2.69,33.04,17.16L392.2,242.59z"/>
				<g id="Group_18">
					<path id="Path_14" class="st24" d="M388.72,242.61l0.43-0.06c-0.01-0.06-0.85-6.11-5.46-12.55
						c-4.25-5.94-12.67-13.45-28.62-15.47l-0.05,0.43c15.79,2.01,24.11,9.42,28.31,15.28C387.89,236.59,388.72,242.56,388.72,242.61
						z"/>
				</g>
			</g>
		</g>
	</g>
	
		<linearGradient id="Path_15_1_" gradientUnits="userSpaceOnUse" x1="-480.7273" y1="534.2714" x2="-480.2655" y2="534.2714" gradientTransform="matrix(251.984 0 0 -177.63 121259.4922 94996.8203)">
		<stop  offset="0" style="stop-color:#BF9FEE"/>
		<stop  offset="1" style="stop-color:#F2C0FF"/>
	</linearGradient>
	<path id="Path_15" class="st25" d="M152.78,133.8l105.23,0.43c2.63,0,4.77-2.56,4.77-5.2V59.56c0-3.01-2.44-5.45-5.45-5.45l0,0
		H153.64c-2.49,0-4.51,2.02-4.51,4.51v71.52C149.12,132.17,150.76,133.8,152.78,133.8C152.78,133.8,152.78,133.8,152.78,133.8z"/>
	<path id="Path_17" class="st26" d="M259.34,129.04c0,2.57-2.03,5.06-4.57,5.18l-91.54-0.37l-10.45-0.05
		c-2.02,0-3.65-1.64-3.65-3.65l0,0v-7.95h110.21V129.04z"/>
	<circle id="Ellipse_6" class="st0" cx="204.23" cy="128.21" r="2.79"/>
	<g id="Group_29">
		
			<linearGradient id="Path_18_1_" gradientUnits="userSpaceOnUse" x1="-478.501" y1="535.3217" x2="-478.501" y2="534.8309" gradientTransform="matrix(93.1079 0 0 -32.574 44756.1602 17569.0039)">
			<stop  offset="0" style="stop-color:#866EC7"/>
			<stop  offset="1" style="stop-color:#F2C0FF"/>
		</linearGradient>
		<path id="Path_18" class="st27" d="M223.82,134.11l1.06,9.17c0.31,2.68-1.61,5.1-4.28,5.41c-0.19,0.02-0.37,0.03-0.56,0.03h-37.12
			c0-2.14,1.73-3.87,3.87-3.87h0h13.24c2.31,0,4.19-1.87,4.19-4.19v-6.64L223.82,134.11z"/>
		
			<linearGradient id="Path_19_1_" gradientUnits="userSpaceOnUse" x1="-478.5094" y1="536.255" x2="-477.8152" y2="536.255" gradientTransform="matrix(93.1028 0 0 -12.698 44753.6914 6955.2119)">
			<stop  offset="0" style="stop-color:#866EC7"/>
			<stop  offset="1" style="stop-color:#F2C0FF"/>
		</linearGradient>
		<path id="Path_19" class="st28" d="M182.92,148.71h37.11c2.69,0,4.88-2.18,4.88-4.88c0-0.19-0.01-0.37-0.03-0.56l-0.03-0.29
			c-0.37,2.37-2.41,4.11-4.81,4.11h-36.76C183.04,147.6,182.92,148.15,182.92,148.71z"/>
		<path id="Path_20" class="st29" d="M221.34,134.08l1.06,9.19c0.31,2.68-1.61,5.1-4.29,5.41c-0.19,0.02-0.38,0.03-0.56,0.03h2.49
			c2.69,0,4.88-2.18,4.88-4.88c0-0.19-0.01-0.37-0.03-0.56l-1.06-9.17L221.34,134.08z"/>
	</g>
	
		<linearGradient id="Rectangle_16_1_" gradientUnits="userSpaceOnUse" x1="-482.9317" y1="531.7709" x2="-483.3101" y2="531.7709" gradientTransform="matrix(-133.937 0 0 8.58 -64622.6445 -4415.8188)">
		<stop  offset="0" style="stop-color:#F2C0FF"/>
		<stop  offset="1" style="stop-color:#FFEEF6"/>
	</linearGradient>
	<path id="Rectangle_16" class="st30" d="M208.56,148.71h-60.41l0,0v-3.87l0,0h56.54C206.83,144.84,208.56,146.57,208.56,148.71
		L208.56,148.71L208.56,148.71z"/>
	<g id="Group_28">
		<path id="Path_16" class="st29" d="M254.57,134.23h3.44c2.63,0,4.76-2.56,4.76-5.19V59.57c0-3.01-2.44-5.45-5.44-5.45h-3.44
			c3.01,0,5.44,2.44,5.44,5.45v0v69.47C259.34,131.67,257.2,134.23,254.57,134.23z"/>
		
			<linearGradient id="Path_21_1_" gradientUnits="userSpaceOnUse" x1="-470.2215" y1="535.6335" x2="-470.3311" y2="535.9307" gradientTransform="matrix(18.188 0 0 -27.483 8803.6016 14818.3057)">
			<stop  offset="0" style="stop-color:#866EC7"/>
			<stop  offset="1" style="stop-color:#F2C0FF"/>
		</linearGradient>
		<path id="Path_21" class="st31" d="M258.01,134.23h-3.44c2.63,0,4.76-2.56,4.76-5.19v-6.84l3.44-0.36v7.2
			C262.77,131.67,260.64,134.23,258.01,134.23z"/>
	</g>
	<g id="Pop_Up" transform="translate(-80)">
		<g id="User">
			<g transform="matrix(1, 0, 0, 1, 80, 0)">
				
					<linearGradient id="Path_26-2_1_" gradientUnits="userSpaceOnUse" x1="-474.242" y1="531.0065" x2="-473.791" y2="531.0065" gradientTransform="matrix(29 0 0 -29 13955.3564 15443.501)">
					<stop  offset="0" style="stop-color:#00C6FF"/>
					<stop  offset="1" style="stop-color:#0072FF"/>
				</linearGradient>
				<path id="Path_26-2" class="st32" d="M227.67,44.3c0,3.61,2.93,6.54,6.54,6.54s6.54-2.93,6.54-6.54c0-3.61-2.93-6.54-6.54-6.54
					c-3.61-0.01-6.54,2.91-6.54,6.52C227.67,44.28,227.67,44.29,227.67,44.3z"/>
			</g>
			<path id="Path_27" class="st0" d="M312.48,41.71c0,0.96,0.78,1.73,1.73,1.73c0.96,0,1.73-0.78,1.73-1.73
				c0-0.96-0.78-1.73-1.73-1.73C313.26,39.97,312.48,40.74,312.48,41.71C312.48,41.7,312.48,41.7,312.48,41.71z"/>
			<path id="Path_28" class="st0" d="M309.82,49.14c2.49,2.26,6.3,2.26,8.79,0c-0.58-2.68-2.33-4.62-4.39-4.62
				S310.4,46.47,309.82,49.14z"/>
		</g>
		<g id="Lock">
			<g transform="matrix(1, 0, 0, 1, 80, 0)">
				
					<linearGradient id="Ellipse_7-2_1_" gradientUnits="userSpaceOnUse" x1="-470.7512" y1="531.93" x2="-470.3001" y2="531.93" gradientTransform="matrix(37.818 0 0 -37.818 18064.7559 20164.2109)">
					<stop  offset="0" style="stop-color:#FDC830"/>
					<stop  offset="1" style="stop-color:#F37335"/>
				</linearGradient>
				<circle id="Ellipse_7-2" class="st33" cx="172.66" cy="47.68" r="8.53"/>
			</g>
			<path id="Path_29" class="st0" d="M249.2,48.25v2.25c0,1.08,0.88,1.96,1.96,1.96l0,0h3c1.08,0,1.96-0.88,1.96-1.96l0,0v-2.25
				c0-0.69-0.37-1.33-0.96-1.68v-1.38c0.02-1.38-1.08-2.51-2.46-2.53c-1.38-0.02-2.51,1.08-2.53,2.46c0,0.02,0,0.04,0,0.07v1.38
				C249.57,46.92,249.2,47.56,249.2,48.25z M251.7,48.97c0-0.53,0.43-0.97,0.96-0.97c0.53,0,0.97,0.43,0.97,0.96
				c0,0.42-0.26,0.79-0.66,0.92v0.56c-0.01,0.17-0.15,0.3-0.32,0.29c-0.16-0.01-0.29-0.13-0.29-0.29v-0.56
				C251.96,49.75,251.7,49.38,251.7,48.97L251.7,48.97z M251.16,46.29c-0.18,0-0.35,0.03-0.52,0.08v-1.18c0-1.11,0.9-2.02,2.02-2.02
				c1.11,0,2.02,0.9,2.02,2.02v1.18c-0.17-0.05-0.34-0.08-0.52-0.08L251.16,46.29z"/>
		</g>
		<g id="Mail">
			<g transform="matrix(1, 0, 0, 1, 80, 0)">
				
					<linearGradient id="Ellipse_8-2_1_" gradientUnits="userSpaceOnUse" x1="-473.9524" y1="531.8343" x2="-473.5013" y2="531.8343" gradientTransform="matrix(43.688 0 0 -43.688 20943.1465 23266.6289)">
					<stop  offset="0" style="stop-color:#FF1F5A"/>
					<stop  offset="1" style="stop-color:#FFB5B3"/>
				</linearGradient>
				<circle id="Ellipse_8-2" class="st34" cx="196.11" cy="31.85" r="9.85"/>
			</g>
			<rect id="Rectangle_23" x="270.52" y="27.73" class="st0" width="11.17" height="8.26"/>
			<path id="Path_30" class="st35" d="M270.52,27.73l4.45,4.12c0.64,0.6,1.64,0.6,2.28,0l4.45-4.12H270.52z"/>
			<path id="Path_31" class="st35" d="M277.1,32l4.59,3.98l-4.3-4.29L277.1,32z"/>
			<path id="Path_32" class="st35" d="M274.82,31.69l-4.3,4.29l4.59-3.98L274.82,31.69z"/>
		</g>
		<g id="Check">
			<g transform="matrix(1, 0, 0, 1, 80, 0)">
				
					<linearGradient id="Ellipse_9-2_1_" gradientUnits="userSpaceOnUse" x1="-472.3654" y1="529.9521" x2="-471.9144" y2="529.9521" gradientTransform="matrix(27.646 0 0 -27.646 13274.6221 14675.29)">
					<stop  offset="0" style="stop-color:#DBE42C"/>
					<stop  offset="1" style="stop-color:#6AD419"/>
				</linearGradient>
				<circle id="Ellipse_9-2" class="st36" cx="221.23" cy="24.23" r="6.23"/>
			</g>
			<g id="Group_25">
				<path id="Path_33" class="st0" d="M300.16,26.84c-0.17,0-0.34-0.07-0.46-0.19l-1.79-1.79c-0.26-0.25-0.26-0.66-0.02-0.91
					c0.25-0.26,0.66-0.26,0.91-0.02c0.01,0.01,0.01,0.01,0.02,0.02l1.33,1.33l3.47-3.47c0.25-0.26,0.66-0.26,0.91-0.02
					c0.26,0.25,0.26,0.66,0.02,0.91c-0.01,0.01-0.01,0.01-0.02,0.02l-3.92,3.92C300.5,26.77,300.34,26.84,300.16,26.84z"/>
			</g>
		</g>
		<g id="Group_27">
			
				<linearGradient id="Ellipse_10_1_" gradientUnits="userSpaceOnUse" x1="-346.8435" y1="516.1315" x2="-346.8435" y2="517.421" gradientTransform="matrix(4.766 0 0 -4.766 1952.3699 2522.6699)">
				<stop  offset="0" style="stop-color:#0072FF"/>
				<stop  offset="1" style="stop-color:#00C6FF;stop-opacity:0"/>
			</linearGradient>
			<circle id="Ellipse_10" class="st37" cx="299.31" cy="58.85" r="1.07"/>
			
				<linearGradient id="Ellipse_11_1_" gradientUnits="userSpaceOnUse" x1="-373.5427" y1="522.97" x2="-373.4466" y2="525.0673" gradientTransform="matrix(9.532 0 0 -9.532 3853.7639 5049.0908)">
				<stop  offset="0" style="stop-color:#0072FF"/>
				<stop  offset="1" style="stop-color:#00C6FF;stop-opacity:0"/>
			</linearGradient>
			<circle id="Ellipse_11" class="st38" cx="293.83" cy="49.37" r="2.15"/>
			
				<linearGradient id="Ellipse_12_1_" gradientUnits="userSpaceOnUse" x1="-361.3517" y1="518.8335" x2="-361.3517" y2="517.866" gradientTransform="matrix(6.674 0 0 -6.674 2704.8479 3500.6519)">
				<stop  offset="0" style="stop-color:#DBE42C;stop-opacity:0"/>
				<stop  offset="1" style="stop-color:#6AD419"/>
			</linearGradient>
			<circle id="Ellipse_12" class="st39" cx="293.19" cy="39.97" r="1.51"/>
			
				<linearGradient id="Ellipse_13_1_" gradientUnits="userSpaceOnUse" x1="-313.6663" y1="500.9301" x2="-313.6663" y2="502.5696" gradientTransform="matrix(2.93 0 0 -2.93 1220.936 1521.5481)">
				<stop  offset="0" style="stop-color:#0072FF"/>
				<stop  offset="1" style="stop-color:#00C6FF;stop-opacity:0"/>
			</linearGradient>
			<circle id="Ellipse_13" class="st40" cx="301.89" cy="49.93" r="0.66"/>
			
				<linearGradient id="Ellipse_14_1_" gradientUnits="userSpaceOnUse" x1="-324.5224" y1="510.782" x2="-324.5224" y2="509.9764" gradientTransform="matrix(3.814 0 0 -3.814 1509.8469 1999.6599)">
				<stop  offset="0" style="stop-color:#FDC830;stop-opacity:0"/>
				<stop  offset="1" style="stop-color:#F37335"/>
			</linearGradient>
			<circle id="Ellipse_14" class="st41" cx="272.12" cy="52.46" r="0.86"/>
			
				<linearGradient id="Ellipse_15_1_" gradientUnits="userSpaceOnUse" x1="-303.0079" y1="504.3354" x2="-303.0079" y2="502.8641" gradientTransform="matrix(3.072 0 0 -3.072 1195.585 1597.53)">
				<stop  offset="0" style="stop-color:#FDC830;stop-opacity:0"/>
				<stop  offset="1" style="stop-color:#F37335"/>
			</linearGradient>
			<circle id="Ellipse_15" class="st42" cx="264.74" cy="49.96" r="0.69"/>
			
				<linearGradient id="Ellipse_16_1_" gradientUnits="userSpaceOnUse" x1="-322.311" y1="506.9769" x2="-322.311" y2="508.3412" gradientTransform="matrix(3.548 0 0 -3.548 1426.0551 1851.869)">
				<stop  offset="0" style="stop-color:#FF1F5A"/>
				<stop  offset="1" style="stop-color:#FFB5B3;stop-opacity:0"/>
			</linearGradient>
			<circle id="Ellipse_16" class="st43" cx="282.5" cy="49.93" r="0.8"/>
			
				<linearGradient id="Ellipse_17_1_" gradientUnits="userSpaceOnUse" x1="-322.5855" y1="509.9102" x2="-322.5855" y2="511.2759" gradientTransform="matrix(3.548 0 0 -3.548 1427.829 1870.696)">
				<stop  offset="0" style="stop-color:#FF1F5A"/>
				<stop  offset="1" style="stop-color:#FFB5B3;stop-opacity:0"/>
			</linearGradient>
			<circle id="Ellipse_17" class="st44" cx="283.3" cy="58.42" r="0.8"/>
			
				<linearGradient id="Ellipse_18_1_" gradientUnits="userSpaceOnUse" x1="-351.4899" y1="518.0628" x2="-351.4899" y2="517.2244" gradientTransform="matrix(5.974 0 0 -5.974 2367.6731 3139.2429)">
				<stop  offset="0" style="stop-color:#FDC830;stop-opacity:0"/>
				<stop  offset="1" style="stop-color:#F37335"/>
			</linearGradient>
			<circle id="Ellipse_18" class="st45" cx="267.87" cy="45.72" r="1.35"/>
			
				<linearGradient id="Ellipse_19_1_" gradientUnits="userSpaceOnUse" x1="-286.1415" y1="490.1573" x2="-286.1415" y2="491.7743" gradientTransform="matrix(2.384 0 0 -2.384 969.544 1214.735)">
				<stop  offset="0" style="stop-color:#FF1F5A"/>
				<stop  offset="1" style="stop-color:#FFB5B3;stop-opacity:0"/>
			</linearGradient>
			<circle id="Ellipse_19" class="st46" cx="287.38" cy="43.17" r="0.54"/>
			
				<linearGradient id="Ellipse_20_1_" gradientUnits="userSpaceOnUse" x1="-335.0876" y1="505.6574" x2="-335.0876" y2="504.3864" gradientTransform="matrix(3.814 0 0 -3.814 1583.2499 1963.132)">
				<stop  offset="0" style="stop-color:#DBE42C;stop-opacity:0"/>
				<stop  offset="1" style="stop-color:#6AD419"/>
			</linearGradient>
			<circle id="Ellipse_20" class="st47" cx="305.23" cy="35.98" r="0.86"/>
		</g>
	</g>
	<g id="Woman" transform="translate(-80)">
		<g id="Legs">
			<path id="Path_35" class="st48" d="M213.93,258.57c0,0,1.72-2.47,7.31,4.3c3.82,4.63,9.46,1.29,11.82,3.44
				c0.69,0.68,1.15,1.56,1.3,2.51c0.41,2.08-0.94,4.1-3.02,4.51c-0.25,0.05-0.5,0.07-0.76,0.07h-7.98c-1.86,0.04-3.7-0.3-5.43-1
				c-0.53-0.23-1.1-0.34-1.67-0.34h-3.83c-0.86,0.05-1.68,0.36-2.35,0.9c-0.83,0.62-1.81,1-2.85,1.07
				c-1.24,0.07-2.49,0.04-3.73-0.09c-0.68-0.04-1.35-0.2-1.98-0.47c-0.94-0.51-1.59-1.44-1.75-2.5c-0.41-2.3-1.6-5.84-0.32-10.33
				c0.36-1.23,1.48-2.08,2.77-2.07L213.93,258.57z"/>
			<path id="Path_36" class="st49" d="M213.93,258.57c0,0,1.13,0,2.26,2.15c1.24,2.36-2.19,3.51-7.27,3.01s-7.99-5.16-7.99-5.16
				L213.93,258.57z"/>
			
				<linearGradient id="Path_38_1_" gradientUnits="userSpaceOnUse" x1="-399.8217" y1="535.0529" x2="-399.8231" y2="535.2708" gradientTransform="matrix(226.7296 0 0 -194.9481 90852.6328 104520.3125)">
				<stop  offset="0" style="stop-color:#774181"/>
				<stop  offset="1" style="stop-color:#352961"/>
			</linearGradient>
			<path id="Path_38" class="st50" d="M190.42,170.64l52.54,0.88c5.11,0.09,9.18,4.29,9.09,9.4c-0.01,0.62-0.08,1.23-0.22,1.84
				l-16.7,75.81h-12.79l5.77-60.62c0.07-0.69-0.44-1.29-1.12-1.36c-0.08-0.01-0.16-0.01-0.25,0c-7.83,0.8-43.94,4.46-56.75,5.22
				c-14.4,0.86-20.21-31.17-20.21-31.17L190.42,170.64z"/>
			
				<linearGradient id="Path_39_1_" gradientUnits="userSpaceOnUse" x1="-394.8795" y1="534.3525" x2="-394.9697" y2="534.7197" gradientTransform="matrix(57.256 0 0 -137.408 22837.5898 73793.9297)">
				<stop  offset="0" style="stop-color:#774181"/>
				<stop  offset="1" style="stop-color:#352961"/>
			</linearGradient>
			<path id="Path_39" class="st51" d="M226.75,196.59l-12.82,61.98h-13l4.39-59.84L226.75,196.59z"/>
			<path id="Path_40" class="st52" d="M235.14,258.57c0,0,1.93-2.47,7.52,4.3c3.82,4.63,9.46,1.29,11.82,3.44
				c0.69,0.68,1.15,1.56,1.3,2.51c0.41,2.08-0.94,4.1-3.02,4.51c-0.25,0.05-0.5,0.07-0.76,0.07h-8.25c-1.79,0-3.57-0.35-5.23-1.03
				l0,0c-0.51-0.21-1.05-0.32-1.6-0.32h-3.83c-1.45,0-2.79,0.74-3.57,1.96h-5.44c-1.79,0-3.33-1.28-3.65-3.04
				c-0.47-2.65-0.5-6.92,1.9-12.41L235.14,258.57z"/>
			<path id="Path_41" class="st49" d="M235.14,258.57c0,0,1.34,0,2.47,2.15c1.24,2.36-2.19,3.51-7.27,3.01
				c-5.09-0.5-7.99-5.16-7.99-5.16L235.14,258.57z"/>
		</g>
		<g id="Body">
			
				<linearGradient id="Path_34_1_" gradientUnits="userSpaceOnUse" x1="-399.3733" y1="533.7916" x2="-399.6249" y2="534.2263" gradientTransform="matrix(215.3376 0 0 -190.5423 86272.1719 101979.9609)">
				<stop  offset="0" style="stop-color:#B122E5"/>
				<stop  offset="1" style="stop-color:#FF63DE"/>
			</linearGradient>
			<path id="Path_34" class="st53" d="M192.14,89.7c0,0,9.14,5.98,13.6,8.42s13.63,39.27,15.93,39.7s20.42,0.21,20.42,0.21
				l4.44,5.45c0,0-20.71,6.81-30.31,8.1c-9.6,1.29-18.49-28.02-18.49-28.02s1.71,14.19-3.01,19.42c-5.17,5.73-5.53,20.63-4.3,27.66
				c0,0-18.7,7.38-40.63,0c0,0-0.86-43,0-56.54s7.09-24.94,25.15-26.12L192.14,89.7z"/>
			
				<linearGradient id="Path_42_1_" gradientUnits="userSpaceOnUse" x1="-397.1464" y1="534.0435" x2="-397.2375" y2="534.4197" gradientTransform="matrix(98.8809 0 0 -123.4414 39456.9141 66148.1016)">
				<stop  offset="0" style="stop-color:#B122E5"/>
				<stop  offset="1" style="stop-color:#B122E5;stop-opacity:0"/>
			</linearGradient>
			<path id="Path_42" class="st54" d="M149.79,170.64c0,0-0.13-6.55-0.24-15.34l26.9-3.72l3.94-21.64l9.91-11.69
				c0,0,5.28,7.11,3.47,12.71c-1.81,5.6-9.23,9.45-7.51,15.18c1.72,5.73-5.44,10.96-2.15,16.97c3.29,6.01,6.31,7.54,6.31,7.54
				S171.72,178.02,149.79,170.64z"/>
			
				<linearGradient id="Path_44_1_" gradientUnits="userSpaceOnUse" x1="-339.0399" y1="533.9277" x2="-337.8415" y2="533.8988" gradientTransform="matrix(9.4468 0 0 -64.683 3602.4336 34694.5742)">
				<stop  offset="0" style="stop-color:#B122E5"/>
				<stop  offset="1" style="stop-color:#B122E5;stop-opacity:0"/>
			</linearGradient>
			<path id="Path_44" class="st55" d="M193.77,110.23l3.96,13.33l0.12,1.27c0.23,2.8,0.54,9.65-1.16,14.57
				C197.7,135.24,193.77,110.23,193.77,110.23z"/>
			<path id="Path_52" class="st49" d="M246.53,143.48c2-0.02,3.99-0.19,5.97-0.5c2.2-0.45,3.06,0.94,4.41,0.94
				c1.34,0-0.38-2.85-4.57-4.51c-4.19-1.67-9.79-0.81-9.79-0.81L246.53,143.48z"/>
		</g>
		<g id="Head">
			<path id="Path_37" class="st49" d="M194.19,83.57c0.61,1.13,1.39,2.5,2.16,4.01c2.46,0.37,5.55,0.3,6.66-1.97
				c1.56-3.21,2.39-14.72,2.65-19.04c-0.33,0.19-0.65,0.36-0.97,0.51c-1.94,0.84-4.17,0.72-6.01-0.33
				c-0.94-0.51-2.11-0.66-2.73,1.13c-1.14,3.3,1.93,3.51,1.29,5.02C196.59,74.4,191.07,77.77,194.19,83.57z"/>
			
				<linearGradient id="Path_43_1_" gradientUnits="userSpaceOnUse" x1="-397.2726" y1="533.7241" x2="-397.7304" y2="533.9135" gradientTransform="matrix(156.4296 0 0 -258.7917 62572.8945 138401.1875)">
				<stop  offset="0" style="stop-color:#3C2A4B"/>
				<stop  offset="1" style="stop-color:#7C3DB2"/>
			</linearGradient>
			<path id="Path_43" class="st56" d="M204.68,67.08c-1.94,0.84-4.17,0.72-6.01-0.33c-0.94-0.51-2.11-0.66-2.73,1.12
				c-1.15,3.3,1.93,3.51,1.29,5.02s-6.16,4.87-3.05,10.68c3.12,5.81,10.86,17.84-2.47,23.86c-13.33,6.02,6.45,12.04,1.72,22.36
				s-13.33,6.23-10.96,15.05c2.36,8.81-0.22,15.26-13.33,17.63c-13.11,2.36-21.71-1.72-26.66-15.05
				c-4.94-13.33,5.8-11.61,3.87-31.17c-1.93-19.56,10.96-25.15,18.06-28.81c7.09-3.65,2.15-8.64,3.87-22.4
				c1.72-13.76,10.61-18.66,17.63-18.66s16.84,9.25,22.79,10.68c5.95,1.43,1.79,5.66-1.07,8.1
				C206.74,65.93,205.75,66.58,204.68,67.08z"/>
		</g>
		<g id="Chair">
			
				<linearGradient id="Path_46_1_" gradientUnits="userSpaceOnUse" x1="-366.018" y1="537.9641" x2="-363.9694" y2="538.3979" gradientTransform="matrix(17.318 0 0 -156.657 6729.2114 84111.4844)">
				<stop  offset="0" style="stop-color:#866EC7"/>
				<stop  offset="1" style="stop-color:#BF9FEE"/>
			</linearGradient>
			<path id="Path_46" class="st57" d="M184.69,205.32l-2.93,69.73c-0.02,0.52-0.45,0.93-0.97,0.93l0,0c-0.52,0-0.95-0.41-0.97-0.93
				l-2.94-69.73H184.69z"/>
			
				<linearGradient id="Path_47_1_" gradientUnits="userSpaceOnUse" x1="-392.9975" y1="536.867" x2="-392.56" y2="537.3311" gradientTransform="matrix(50.5724 0 0 -156.655 20163.7383 84110.4063)">
				<stop  offset="0" style="stop-color:#BF9FEE"/>
				<stop  offset="1" style="stop-color:#F2C0FF"/>
			</linearGradient>
			<path id="Path_47" class="st58" d="M213.84,205.32l15.69,68.69c0.2,0.86-0.34,1.73-1.21,1.92c-0.12,0.03-0.24,0.04-0.36,0.04l0,0
				c-0.72,0-1.35-0.48-1.55-1.17l-19.66-69.49H213.84z"/>
			<path id="Path_48" class="st29" d="M141.03,204.87l-15.79,69.14c-0.2,0.87,0.34,1.73,1.21,1.92c0.12,0.03,0.24,0.04,0.36,0.04
				l0,0c0.72,0,1.35-0.48,1.55-1.17l19.66-69.94H141.03z"/>
			
				<linearGradient id="Path_49_1_" gradientUnits="userSpaceOnUse" x1="-399.5493" y1="534.633" x2="-399.5493" y2="535.0181" gradientTransform="matrix(211.789 0 0 -153.4 84794.0469 82215.5938)">
				<stop  offset="0" style="stop-color:#BF9FEE"/>
				<stop  offset="1" style="stop-color:#F2C0FF"/>
			</linearGradient>
			<path id="Path_49" class="st59" d="M172.47,136.14h-46.33l0.86,52.6c0,9.16,6.57,16.59,15.73,16.59h77.39
				c0.85,0,1.54-0.69,1.54-1.54c0,0,0,0,0,0l0,0c0-0.85-0.69-1.54-1.54-1.54c0,0,0,0,0,0h-33.54c-5.69,0-10.4-4.43-10.75-10.12
				L172.47,136.14z"/>
			<path id="Path_50" class="st60" d="M172.65,191.99l-4.16-55.86h3.98l3.37,55.99c0.34,5.68,5.05,10.12,10.75,10.12h33.54
				c0.85,0,1.54,0.69,1.54,1.55c0,0.85-0.69,1.53-1.54,1.54h-34.48C178.27,205.32,173.08,199.36,172.65,191.99z"/>
			
				<linearGradient id="Path_51_1_" gradientUnits="userSpaceOnUse" x1="-377.8099" y1="530.5236" x2="-378.4116" y2="530.93" gradientTransform="matrix(25.0191 0 0 -156.657 9806.7178 84111.4844)">
				<stop  offset="0" style="stop-color:#BF9FEE"/>
				<stop  offset="1" style="stop-color:#F2C0FF"/>
			</linearGradient>
			<path id="Path_51" class="st61" d="M173.91,205.32l-5.3,69.18c-0.06,0.76,0.51,1.42,1.27,1.48c0.04,0,0.07,0,0.11,0l0,0
				c0.7,0,1.28-0.52,1.37-1.21l8.54-69.45H173.91z"/>
		</g>
	</g>
	<g>
		<rect id="Rectangle_17" x="152.56" y="57.56" class="st26" width="103.34" height="61.2"/>
		<path id="Path_22" class="st0" d="M227.67,118.76h-46.89V66.23c0-2.18,1.77-3.95,3.95-3.95h0h38.99c2.18,0,3.95,1.77,3.95,3.95
			L227.67,118.76z"/>
		
			<linearGradient id="Path_23_1_" gradientUnits="userSpaceOnUse" x1="-470.9164" y1="532.2686" x2="-470.4653" y2="532.2686" gradientTransform="matrix(29 0 0 -29 13888.8701 15510.1572)">
			<stop  offset="0" style="stop-color:#B122E5"/>
			<stop  offset="1" style="stop-color:#FF63DE"/>
		</linearGradient>
		<path id="Path_23" class="st62" d="M197.69,74.37c0,3.61,2.93,6.54,6.54,6.54c3.61,0,6.54-2.93,6.54-6.54
			c0-3.61-2.93-6.54-6.54-6.54c-3.61-0.01-6.54,2.91-6.54,6.52C197.69,74.36,197.69,74.36,197.69,74.37z"/>
		<path id="Path_24" class="st0" d="M202.5,71.78c0,0.96,0.78,1.73,1.73,1.73c0.96,0,1.73-0.78,1.73-1.73
			c0-0.96-0.78-1.73-1.73-1.73l0,0C203.27,70.04,202.5,70.82,202.5,71.78C202.5,71.77,202.5,71.78,202.5,71.78z"/>
		<path id="Path_25" class="st0" d="M199.83,79.21c2.49,2.26,6.3,2.26,8.79,0c-0.58-2.68-2.33-4.62-4.39-4.62
			S200.41,76.54,199.83,79.21z"/>
		<g id="Group_21">
			<path id="Rectangle_19" class="st26" d="M215.06,88.59L215.06,88.59c0,0.85-0.69,1.54-1.54,1.54h-23.9
				c-0.85,0-1.54-0.69-1.54-1.54l0,0c0-0.85,0.69-1.54,1.54-1.54h23.9C214.37,87.05,215.06,87.74,215.06,88.59z"/>
			<path id="Rectangle_20" class="st26" d="M220.38,88.59L220.38,88.59c0,0.85-0.69,1.54-1.54,1.54l0,0c-0.85,0-1.54-0.69-1.54-1.54
				l0,0c0-0.85,0.69-1.54,1.54-1.54l0,0C219.69,87.05,220.38,87.74,220.38,88.59z"/>
			<path id="Rectangle_21" class="st26" d="M220.38,94.18L220.38,94.18c0,0.85-0.69,1.54-1.54,1.54l0,0c-0.85,0-1.54-0.69-1.54-1.54
				l0,0c0-0.85,0.69-1.54,1.54-1.54l0,0C219.69,92.64,220.38,93.33,220.38,94.18z"/>
			<path id="Rectangle_22" class="st26" d="M215.06,94.18L215.06,94.18c0,0.85-0.69,1.54-1.54,1.54h-23.9
				c-0.85,0-1.54-0.69-1.54-1.54l0,0c0-0.85,0.69-1.54,1.54-1.54h23.9C214.37,92.64,215.06,93.33,215.06,94.18z"/>
		</g>
		<path class="st26" d="M208.39,110.17h-8.6c-1.36,0-2.47-1.1-2.47-2.47v-0.48c0-1.36,1.1-2.47,2.47-2.47h8.6
			c1.36,0,2.47,1.1,2.47,2.47v0.48C210.86,109.07,209.76,110.17,208.39,110.17z"/>
	</g>
</g>
</svg>
